<svg xmlns="http://www.w3.org/2000/svg" viewBox="0 0 100 100" width="100" height="100">
  <defs>
    <linearGradient id="cogGrad" x1="0%" y1="0%" x2="100%" y2="100%">
      <stop offset="0%" style="stop-color:#64ffda;stop-opacity:1" />
      <stop offset="100%" style="stop-color:#00d4ff;stop-opacity:1" />
    </linearGradient>
  </defs>
  <!-- Background -->
  <rect width="100" height="100" fill="#0a0e27" rx="10"/>
  
  <!-- Gear/Cog Icon -->
  <g transform="translate(50,50)">
    <!-- Gear teeth - simplified cog shape -->
    <path d="M 35,0 L 38,-5 L 35,-10 L 25,-10 L 22,-5 L 25,0 L 25,8 L 22,8 L 22,15 L 25,15 L 25,25 L 22,30 L 25,35 L 35,35 L 38,30 L 35,25 L 35,15 L 38,15 L 38,8 L 35,8 Z" 
          fill="url(#cogGrad)" 
          transform="rotate(0)"/>
    <path d="M 35,0 L 38,-5 L 35,-10 L 25,-10 L 22,-5 L 25,0 L 25,8 L 22,8 L 22,15 L 25,15 L 25,25 L 22,30 L 25,35 L 35,35 L 38,30 L 35,25 L 35,15 L 38,15 L 38,8 L 35,8 Z" 
          fill="url(#cogGrad)" 
          transform="rotate(45)"/>
    <path d="M 35,0 L 38,-5 L 35,-10 L 25,-10 L 22,-5 L 25,0 L 25,8 L 22,8 L 22,15 L 25,15 L 25,25 L 22,30 L 25,35 L 35,35 L 38,30 L 35,25 L 35,15 L 38,15 L 38,8 L 35,8 Z" 
          fill="url(#cogGrad)" 
          transform="rotate(90)"/>
    <path d="M 35,0 L 38,-5 L 35,-10 L 25,-10 L 22,-5 L 25,0 L 25,8 L 22,8 L 22,15 L 25,15 L 25,25 L 22,30 L 25,35 L 35,35 L 38,30 L 35,25 L 35,15 L 38,15 L 38,8 L 35,8 Z" 
          fill="url(#cogGrad)" 
          transform="rotate(135)"/>
    <!-- Center circle -->
    <circle cx="0" cy="0" r="10" fill="#0a0e27"/>
    <circle cx="0" cy="0" r="6" fill="url(#cogGrad)"/>
  </g>
</svg>
